<svg version="1.1" xmlns="http://www.w3.org/2000/svg" xmlns:xlink="http://www.w3.org/1999/xlink" width="801.000000pt" height="521.000000pt" viewBox="0,0,256,166.5"><g fill="#130f40" fill-rule="nonzero" stroke="none" stroke-width="1" stroke-linecap="butt" stroke-linejoin="miter" stroke-miterlimit="10" stroke-dasharray="" stroke-dashoffset="0" font-family="none" font-weight="none" font-size="none" text-anchor="none" style="mix-blend-mode: normal"><g transform="translate(10.00183,-4.26187) scale(0.3196,0.3196)"><g transform="translate(0,521) scale(0.1,-0.1)"><path d="M2895,4770c-244,-32 -465,-133 -642,-295c-117,-106 -275,-340 -350,-517c-24,-59 -32,-68 -58,-73c-16,-2 -75,-11 -130,-20c-698,-110 -1235,-505 -1499,-1102c-42,-95 -106,-280 -106,-306c0,-15 199,-149 325,-220c350,-196 826,-392 1320,-543c66,-20 121,-37 122,-38c1,-1 9,-47 17,-102c28,-183 63,-307 118,-417c34,-68 96,-140 136,-156c15,-6 41,-33 57,-59c99,-156 323,-335 680,-542c88,-51 204,-120 258,-152l99,-60l29,28c71,68 105,204 79,315c-40,168 -205,374 -421,523c-46,32 -73,55 -59,51c82,-25 425,-188 597,-285c39,-22 74,-36 77,-31c18,28 37,157 37,245c0,210 -81,390 -231,516c-73,61 -198,134 -285,165c-42,15 -74,29 -72,31c6,6 401,84 424,84c18,0 31,-16 64,-82c57,-113 106,-183 180,-256c62,-62 163,-122 204,-122c13,0 49,-19 81,-43c272,-200 423,-266 579,-253c44,4 197,8 340,9c199,2 282,7 352,20c215,41 369,111 408,187c38,74 8,127 -171,300c-278,268 -607,496 -782,541l-52,13l81,23c103,30 158,56 289,138c182,113 202,111 359,-38c441,-419 1043,-790 1400,-862c229,-47 367,14 456,200c83,171 85,315 11,624c-81,336 -83,412 -11,626c65,196 70,226 69,450c0,224 -14,325 -66,483c-51,154 -121,242 -191,242c-34,0 -163,-87 -512,-345c-696,-514 -977,-685 -1125,-687c-83,0 -209,72 -312,179l-37,38l62,32c121,63 277,192 493,408c247,246 394,414 394,449c0,68 -172,133 -530,200c-74,14 -297,52 -495,85c-401,67 -447,78 -790,184c-404,125 -576,170 -781,202c-121,19 -393,27 -489,15z"></path></g></g></g></svg>