<svg version="1.1" xmlns="http://www.w3.org/2000/svg" xmlns:xlink="http://www.w3.org/1999/xlink" width="964.000000pt" height="729.000000pt" viewBox="0,0,256,193.57813"><g transform="translate(1.3278,1.00404) scale(0.98963,0.98963)"><g fill-opacity="0" fill="#dddddd" fill-rule="nonzero" stroke="none" stroke-width="1" stroke-linecap="butt" stroke-linejoin="miter" stroke-miterlimit="10" stroke-dasharray="" stroke-dashoffset="0" font-family="none" font-weight="none" font-size="none" text-anchor="none" style="mix-blend-mode: normal"><path d="M-1.34172,194.59269v-195.60725h258.68344v195.60725z" id="bgRectangle"></path></g><g fill="none" fill-rule="nonzero" stroke-opacity="0" stroke="#cc5de8" stroke-width="0.26556" stroke-linecap="butt" stroke-linejoin="miter" stroke-miterlimit="10" stroke-dasharray="" stroke-dashoffset="0" font-family="none" font-weight="none" font-size="none" text-anchor="none" style="mix-blend-mode: normal"><path d="M115.24263,106.43573v-19.29334h25.51474v19.29334z" id="shape"></path></g><g fill="#130f40" fill-rule="nonzero" stroke="none" stroke-width="1" stroke-linecap="butt" stroke-linejoin="miter" stroke-miterlimit="10" stroke-dasharray="" stroke-dashoffset="0" font-family="none" font-weight="none" font-size="none" text-anchor="none" style="mix-blend-mode: normal"><g transform="translate(2.61156,-2.81212) scale(0.26556,0.26556)"><g transform="translate(0,729) scale(0.1,-0.1)"><path d="M5660,6759c-1225,-97 -1869,-310 -2310,-765c-167,-172 -259,-303 -541,-767c-79,-131 -153,-249 -164,-262c-19,-23 -29,-25 -171,-34c-306,-21 -562,-93 -884,-249c-235,-114 -466,-258 -946,-593c-121,-85 -255,-177 -296,-205c-93,-64 -113,-100 -105,-186c17,-188 365,-558 1022,-1085c223,-180 353,-266 520,-349c218,-107 390,-155 628,-176l138,-12l-6,-25c-18,-70 -35,-205 -35,-281c0,-362 200,-742 595,-1135c112,-112 343,-315 367,-324c31,-11 37,85 12,183c-9,33 -54,164 -100,290c-83,222 -154,448 -154,487c0,17 6,15 53,-15c200,-128 504,-223 877,-275c180,-25 470,-47 494,-38c15,6 18,15 14,52c-8,68 -64,133 -265,308c-194,168 -341,315 -392,390c-18,26 -49,82 -69,125l-37,77v176c0,174 0,176 -27,217c-42,63 -161,121 -250,122c-15,0 -29,4 -32,8c-3,5 34,36 82,70c137,96 277,218 413,360l126,131l7,-145c45,-996 558,-1662 1421,-1844c382,-81 816,-16 728,109l-14,21h214c433,0 766,48 945,135c123,61 115,70 -202,219c-76,36 -175,90 -220,120c-83,56 -215,180 -200,188c5,3 38,15 74,26c36,11 300,97 587,191c286,94 535,174 552,177c17,4 36,13 43,21c20,24 14,112 -10,167c-28,62 -107,159 -177,216c-30,25 -55,48 -55,51c0,3 42,30 93,59c545,308 929,749 832,954c-10,20 -30,44 -45,53c-33,19 -40,38 -40,112c0,113 100,334 354,784c105,186 106,188 91,217c-47,90 -193,76 -470,-48c-49,-22 -281,-134 -515,-250c-234,-116 -501,-245 -595,-287c-669,-303 -1227,-473 -1771,-539c-181,-22 -549,-39 -714,-33c-232,9 -401,64 -611,198l-84,54l70,6c97,9 148,26 195,67c93,79 129,229 109,456c-12,140 -38,288 -115,651c-107,505 -191,799 -285,994c-58,123 -59,151 -4,199c78,69 219,120 635,227c157,41 339,90 405,109c194,56 415,137 415,151c0,6 -66,5 -200,-6z"></path></g></g></g></g></svg>