<svg version="1.1" xmlns="http://www.w3.org/2000/svg" xmlns:xlink="http://www.w3.org/1999/xlink" width="1138.000000pt" height="698.000000pt" viewBox="0,0,256,157.01563"><g transform=""><g fill-opacity="0" fill="#dddddd" fill-rule="nonzero" stroke="none" stroke-width="1" stroke-linecap="butt" stroke-linejoin="miter" stroke-miterlimit="10" stroke-dasharray="" stroke-dashoffset="0" font-family="none" font-weight="none" font-size="none" text-anchor="none" style="mix-blend-mode: normal"><path d="M0,157.01563v-157.01562h256v157.01563z" id="bgRectangle"></path></g><g fill="none" fill-rule="nonzero" stroke-opacity="0" stroke="#a739c3" stroke-width="0.22496" stroke-linecap="butt" stroke-linejoin="miter" stroke-miterlimit="10" stroke-dasharray="" stroke-dashoffset="0" font-family="none" font-weight="none" font-size="none" text-anchor="none" style="mix-blend-mode: normal"><path d="M0.15167,156.9226v-156.82958h255.69667v156.82958z" id="shape"></path></g><g fill="#130f40" fill-rule="nonzero" stroke="none" stroke-width="1" stroke-linecap="butt" stroke-linejoin="miter" stroke-miterlimit="10" stroke-dasharray="" stroke-dashoffset="0" font-family="none" font-weight="none" font-size="none" text-anchor="none" style="mix-blend-mode: normal"><g transform="translate(-2.30716,-7.74168) scale(0.22496,0.22496) skewX(0)"><g transform="translate(0,698) scale(0.1,-0.1)"><path d="M3775,4879c-497,-25 -1140,-125 -1546,-240c-505,-142 -864,-347 -994,-568c-28,-47 -33,-51 -68,-51c-44,0 -92,-22 -107,-49c-15,-29 -12,-83 6,-109c14,-20 14,-24 0,-44c-25,-36 -20,-91 10,-122c15,-14 37,-26 50,-26c13,0 24,-3 24,-7c1,-5 3,-39 5,-78c2,-38 7,-115 10,-170c23,-375 127,-798 270,-1098c314,-659 852,-1038 1640,-1154c153,-22 704,-25 890,-5c734,83 1372,335 1890,748c160,128 343,316 484,499c139,179 240,295 277,320c23,15 29,14 112,-14c324,-111 835,-120 1362,-25c222,40 385,93 397,129c2,6 -18,21 -44,34c-203,97 -578,341 -556,361c25,24 594,68 983,77l295,6l215,-100c588,-275 974,-432 1139,-463c44,-8 59,-7 78,5c46,30 79,130 105,315c18,127 17,812 0,1010c-28,313 -67,543 -105,620c-36,73 -54,71 -262,-33c-200,-99 -541,-300 -945,-558l-186,-117l-259,8c-311,11 -539,31 -816,70c-232,33 -479,79 -479,89c0,3 29,22 63,41c77,43 240,204 285,282c41,70 78,173 91,258c16,95 15,95 -177,94c-86,-1 -276,-11 -422,-23c-706,-56 -1257,-75 -1759,-61c-296,9 -338,13 -475,40c-514,100 -981,135 -1481,109z"></path></g></g></g></g></svg>