<?xml version="1.0" standalone="no"?>
<!DOCTYPE svg PUBLIC "-//W3C//DTD SVG 20010904//EN"
 "http://www.w3.org/TR/2001/REC-SVG-20010904/DTD/svg10.dtd">
<svg version="1.0" xmlns="http://www.w3.org/2000/svg"
 width="820.000000pt" height="411.000000pt" viewBox="0 0 820.000000 411.000000"
 preserveAspectRatio="xMidYMid meet">
<metadata>
Created by potrace 1.16, written by Peter Selinger 2001-2019
</metadata>
<g transform="translate(0.000000,411.000000) scale(0.100000,-0.100000)"
fill="#000000" stroke="none">
<path d="M3840 4013 c-84 -119 -196 -251 -346 -403 -88 -91 -169 -180 -179
-199 -9 -19 -35 -82 -57 -140 -68 -183 -140 -301 -282 -463 l-73 -84 12 -42
c15 -48 52 -115 106 -188 48 -66 90 -150 123 -249 39 -120 71 -167 215 -318
222 -233 375 -440 525 -709 20 -38 35 -68 32 -68 -6 0 -290 333 -517 605 -241
290 -457 563 -657 828 -195 259 -258 349 -297 429 -22 45 -57 85 -157 178 -70
66 -131 120 -135 120 -5 0 -78 -100 -163 -222 -232 -333 -411 -569 -461 -610
-24 -20 -72 -52 -107 -73 -79 -46 -81 -49 -322 -498 -105 -197 -227 -416 -270
-486 -105 -172 -133 -230 -181 -374 -79 -235 -110 -272 -368 -436 -89 -57
-160 -105 -158 -107 7 -8 196 -43 282 -53 50 -5 149 -13 220 -16 72 -4 231
-17 355 -31 408 -44 774 -75 809 -69 19 4 58 18 85 32 34 18 66 26 96 26 38
-1 179 -35 417 -100 51 -13 55 -13 125 15 146 59 256 65 524 32 87 -10 285
-31 439 -45 376 -34 544 -58 705 -101 177 -46 284 -68 466 -94 220 -31 301
-30 464 11 113 28 153 34 245 33 101 0 117 -3 188 -32 43 -18 89 -32 103 -32
39 0 79 26 120 77 66 83 64 83 204 83 69 0 166 -5 215 -12 50 -7 110 -12 135
-13 l45 0 -1 39 c-1 34 -11 48 -95 133 -52 51 -85 91 -74 87 11 -3 103 -46
205 -95 271 -129 318 -143 465 -144 115 0 138 4 552 94 l432 95 -177 180
c-254 260 -305 326 -407 533 l-85 172 -128 133 c-174 182 -206 238 -303 515
-56 164 -73 201 -132 288 -43 64 -336 369 -401 416 -45 33 -91 37 -138 13 -45
-23 -608 -474 -640 -513 -36 -42 -36 -83 -2 -133 15 -20 91 -96 170 -168 277
-252 386 -425 499 -787 3 -7 3 -13 0 -13 -2 0 -89 114 -193 253 -209 278 -265
337 -447 468 -143 103 -231 192 -274 277 -32 64 -121 361 -161 538 -34 150
-55 182 -171 259 -104 70 -110 79 -129 180 -6 33 -13 69 -15 80 -3 12 -20 28
-43 38 -94 41 -161 128 -287 367 -41 78 -89 159 -106 182 -18 22 -107 104
-198 183 -92 78 -172 150 -180 159 -20 23 -24 21 -61 -31z m175 -232 c52 -23
97 -75 240 -276 64 -91 144 -200 177 -242 72 -94 101 -148 123 -233 26 -101
51 -138 165 -248 151 -145 178 -199 226 -462 34 -190 69 -322 101 -390 32 -66
85 -119 264 -265 187 -152 321 -290 401 -410 63 -95 238 -410 238 -429 0 -4
-9 -2 -19 5 -285 205 -498 326 -791 449 -201 84 -242 105 -295 149 -52 43
-114 118 -115 137 0 6 34 17 78 23 42 7 85 15 95 17 54 16 -26 148 -227 374
-37 41 -84 104 -105 140 -123 211 -122 209 -136 318 -31 227 -107 437 -225
618 -55 84 -65 114 -76 219 -8 84 -15 105 -59 170 -18 28 -39 74 -45 103 -9
38 -23 64 -47 88 -52 52 -94 48 -208 -21 -90 -55 -128 -64 -66 -16 18 14 70
63 115 107 71 72 95 87 141 92 6 1 28 -7 50 -17z m-1629 -933 c76 -101 171
-235 213 -298 41 -64 113 -155 161 -206 47 -50 124 -144 170 -210 47 -65 122
-168 167 -228 54 -72 93 -136 113 -185 17 -42 38 -92 48 -111 19 -39 188 -244
409 -496 81 -93 168 -194 192 -224 25 -30 67 -78 94 -107 l50 -52 -59 19
c-324 103 -588 261 -809 484 -88 88 -107 115 -159 215 -33 64 -76 131 -98 153
-52 52 -150 97 -268 124 -64 15 -89 24 -77 29 10 4 30 28 45 54 24 40 27 56
27 132 0 80 -2 90 -42 170 -23 46 -72 123 -108 171 -76 101 -229 256 -278 283
-31 16 -38 17 -68 5 -52 -22 -198 -149 -270 -236 -63 -74 -101 -130 -210 -307
-42 -67 -112 -137 -125 -124 -14 14 206 408 336 602 118 176 387 525 405 525
2 0 65 -82 141 -182z m3938 -480 c41 -37 157 -207 208 -304 57 -109 79 -170
118 -329 38 -156 87 -251 211 -412 131 -170 246 -341 303 -453 26 -50 46 -93
44 -95 -2 -2 -49 34 -104 79 -202 169 -411 415 -493 582 -24 47 -71 172 -105
277 -35 106 -77 221 -95 255 -60 118 -148 192 -230 192 l-40 0 31 92 c44 131
93 168 152 116z m153 -1513 c83 -122 164 -186 289 -229 77 -26 167 -67 161
-72 -7 -7 -178 46 -266 81 -90 37 -200 99 -250 141 -44 37 -93 145 -145 324
-24 85 -48 164 -51 175 -4 11 44 -65 107 -170 63 -104 132 -217 155 -250z
m-2343 207 c47 -51 159 -143 230 -192 73 -50 132 -68 344 -110 106 -21 196
-41 200 -45 12 -12 -490 1 -531 14 -42 14 -122 91 -220 211 -59 73 -120 185
-133 245 -5 25 0 21 31 -25 21 -30 56 -75 79 -98z"/>
</g>
</svg>
