<?xml version="1.0" standalone="no"?>
<!DOCTYPE svg PUBLIC "-//W3C//DTD SVG 20010904//EN"
 "http://www.w3.org/TR/2001/REC-SVG-20010904/DTD/svg10.dtd">
<svg version="1.0" xmlns="http://www.w3.org/2000/svg"
 width="962.000000pt" height="431.000000pt" viewBox="0 0 962.000000 431.000000"
 preserveAspectRatio="xMidYMid meet">
<metadata>
Created by potrace 1.16, written by Peter Selinger 2001-2019
</metadata>
<g transform="translate(0.000000,431.000000) scale(0.100000,-0.100000)"
fill="#000000" stroke="none">
<path d="M2895 3954 c-75 -39 -143 -133 -269 -372 -105 -200 -182 -309 -311
-436 -55 -55 -108 -111 -117 -125 -24 -35 -22 -99 4 -157 19 -42 23 -67 23
-174 1 -118 3 -131 38 -232 27 -77 37 -124 37 -167 0 -60 -13 -111 -27 -111
-5 0 -59 108 -122 241 -63 132 -123 251 -133 265 -45 57 -91 20 -168 -136 -96
-193 -230 -403 -369 -579 -36 -45 -95 -122 -131 -170 -89 -121 -113 -146 -210
-227 -168 -141 -219 -210 -316 -429 -90 -204 -130 -260 -295 -417 -77 -73
-168 -166 -202 -207 -34 -40 -87 -91 -119 -112 -42 -29 -59 -48 -69 -76 -11
-34 -10 -38 11 -55 14 -12 39 -18 69 -18 26 0 373 -16 771 -36 801 -40 1300
-48 1568 -26 182 15 252 8 434 -44 83 -24 152 -37 213 -41 102 -5 130 2 320
81 94 39 120 46 179 46 61 0 79 -5 155 -42 78 -39 93 -43 162 -43 72 0 83 3
173 49 53 27 107 62 121 78 24 28 24 30 9 66 -9 20 -18 42 -21 49 -9 23 43 61
102 73 113 23 308 -15 525 -104 74 -30 136 -53 139 -50 3 2 -20 30 -50 62
-107 111 -252 282 -246 289 6 6 355 -95 389 -113 16 -8 49 -42 75 -74 28 -36
62 -67 87 -80 54 -26 1000 -240 1062 -240 43 0 60 8 170 80 140 92 300 171
394 195 45 12 92 16 155 13 100 -4 163 -28 283 -105 86 -57 143 -69 222 -49
87 23 105 21 216 -21 l99 -38 235 3 c129 1 357 -3 507 -9 208 -8 308 -8 424 1
213 17 218 19 130 54 -95 37 -204 110 -269 180 -65 68 -98 138 -220 457 -119
310 -135 345 -229 485 -92 136 -86 125 -192 344 -43 91 -94 182 -113 203 l-33
38 -77 -35 c-100 -47 -183 -66 -290 -66 l-87 0 68 -113 c120 -199 319 -583
307 -594 -11 -11 -110 122 -176 237 -41 72 -108 175 -150 229 -109 139 -137
182 -176 269 -50 108 -91 160 -199 247 -52 42 -114 100 -138 128 -95 112 -248
347 -306 469 -46 98 -74 143 -135 213 -92 107 -114 152 -155 310 -18 67 -53
167 -81 225 -27 58 -52 122 -56 142 -15 89 -97 167 -221 214 -38 14 -74 30
-81 36 -7 6 -14 9 -16 7 -2 -2 -43 -67 -92 -144 -104 -166 -205 -273 -389
-412 -218 -165 -340 -295 -398 -423 -96 -213 -91 -205 -169 -269 -86 -70 -105
-100 -148 -236 -43 -133 -73 -190 -131 -252 -40 -42 -49 -58 -49 -88 0 -35 19
-85 45 -115 7 -8 50 -75 95 -149 l82 -134 -89 75 c-48 41 -135 109 -193 153
-74 55 -222 194 -503 474 -856 850 -970 994 -1027 1292 -12 62 -26 80 -85 113
-26 14 -55 44 -82 86 -24 36 -50 71 -60 78 -23 17 -72 15 -108 -4z m68 -276
c63 -74 99 -138 188 -338 164 -363 284 -511 699 -860 115 -97 323 -291 505
-470 328 -324 343 -336 626 -508 57 -35 120 -77 139 -93 l35 -30 -59 26 c-32
14 -120 43 -196 64 -173 49 -241 79 -354 160 -128 90 -197 126 -327 170 -114
38 -190 72 -219 96 -8 7 -67 41 -130 76 -96 52 -129 77 -201 150 -65 66 -95
90 -125 97 -21 6 -149 20 -284 33 -135 12 -249 25 -253 29 -20 18 278 80 381
80 l52 0 0 54 c0 50 -2 55 -35 77 -19 13 -68 64 -107 112 -134 163 -181 185
-467 217 -114 13 -190 27 -236 44 -81 29 -102 46 -59 47 16 1 126 4 245 8 197
5 219 8 239 26 17 15 21 27 17 53 -7 37 -120 193 -214 293 -35 37 -63 70 -63
74 0 19 142 365 150 365 5 0 29 -24 53 -52z m3366 7 c65 -33 99 -90 152 -260
28 -88 79 -223 112 -300 33 -77 75 -184 93 -238 18 -54 47 -122 65 -150 46
-76 284 -404 518 -715 267 -354 304 -406 419 -597 107 -176 168 -264 277 -400
39 -49 84 -112 99 -138 l28 -49 -54 44 c-29 24 -90 62 -134 86 -98 50 -132 87
-164 173 -19 53 -37 78 -101 141 -43 42 -87 95 -98 116 -22 43 -207 207 -321
284 -116 78 -159 90 -365 100 -211 10 -314 20 -300 30 6 3 49 14 95 24 70 14
114 16 245 10 88 -4 175 -9 194 -13 l34 -6 -52 76 c-29 41 -85 106 -124 144
-40 38 -97 97 -129 131 -47 52 -73 70 -161 112 -83 40 -121 52 -188 61 -57 7
-104 20 -148 41 -59 29 -73 31 -171 32 -102 1 -105 2 -81 17 74 45 136 49 254
17 66 -18 108 -22 212 -22 72 0 142 3 158 7 26 7 27 8 11 32 -8 13 -28 58 -44
99 -35 96 -65 145 -140 237 -33 41 -76 107 -96 146 -54 110 -136 168 -256 181
l-63 7 48 18 c44 17 50 18 90 3 23 -9 66 -22 95 -30 48 -12 52 -12 46 3 -4 9
-8 86 -8 171 -1 102 -6 162 -14 177 -6 12 -12 35 -12 52 0 45 -17 82 -58 124
-33 34 -34 37 -14 37 13 0 36 -7 51 -15z m-4390 -1500 c1 -88 -11 -123 -73
-208 -32 -44 -45 -83 -61 -190 -8 -52 -48 -92 -177 -176 l-107 -70 33 47 c44
61 70 127 89 229 19 101 33 128 112 218 65 75 136 185 157 245 12 34 12 35 19
10 4 -14 7 -61 8 -105z m539 -342 c64 -64 137 -152 181 -216 90 -130 121 -158
214 -187 185 -58 325 -173 372 -305 10 -28 32 -63 50 -80 46 -41 259 -161 356
-200 44 -18 82 -35 85 -38 9 -9 -202 33 -291 59 -168 48 -220 80 -378 233
-144 139 -161 150 -309 211 -115 47 -145 80 -237 260 -67 129 -171 353 -171
366 0 18 38 -12 128 -103z"/>
</g>
</svg>
