<?xml version="1.0" standalone="no"?>
<!DOCTYPE svg PUBLIC "-//W3C//DTD SVG 20010904//EN"
 "http://www.w3.org/TR/2001/REC-SVG-20010904/DTD/svg10.dtd">
<svg version="1.0" xmlns="http://www.w3.org/2000/svg"
 width="2296.000000pt" height="1052.000000pt" viewBox="0 0 2296.000000 1052.000000"
 preserveAspectRatio="xMidYMid meet">
<metadata>
Created by potrace 1.16, written by Peter Selinger 2001-2019
</metadata>
<g transform="translate(0.000000,1052.000000) scale(0.100000,-0.100000)"
fill="#000000" stroke="none">
<path d="M3525 10179 c-39 -142 -40 -147 -40 -314 l0 -170 -58 -109 c-33 -62
-57 -121 -57 -139 0 -16 -13 -53 -29 -81 -16 -28 -35 -70 -41 -93 -25 -83
-111 -158 -229 -199 -56 -19 -66 -27 -69 -48 -3 -21 5 -30 47 -53 28 -15 51
-31 51 -35 0 -10 -97 -44 -185 -63 -137 -30 -138 -30 -64 -43 162 -29 399 -5
532 53 13 5 17 2 17 -13 0 -44 -169 -197 -261 -235 -51 -21 -107 -73 -114
-108 -15 -65 52 -103 131 -75 22 7 78 15 125 17 l84 4 3 -45 c5 -89 -51 -135
-224 -184 -49 -14 -107 -32 -129 -42 -35 -14 -70 -16 -285 -11 -135 3 -258 9
-275 12 l-30 6 30 -26 c39 -35 117 -72 183 -86 28 -7 52 -16 52 -20 0 -14 -62
-60 -124 -92 -61 -32 -62 -32 -216 -32 l-155 0 -3 -27 c-4 -36 19 -77 72 -132
34 -34 59 -49 103 -61 117 -32 223 -68 223 -75 0 -22 -161 -100 -206 -100 -23
0 -77 -30 -96 -54 -40 -49 -6 -96 95 -131 51 -17 66 -18 149 -8 51 6 126 8
166 6 119 -8 159 2 209 54 26 26 51 43 61 41 10 -2 24 -24 35 -55 18 -49 18
-54 2 -110 -15 -50 -27 -68 -90 -128 -165 -159 -427 -279 -700 -320 -104 -15
-346 -19 -448 -6 -72 9 -70 -2 9 -46 63 -35 195 -70 300 -80 69 -6 71 -12 14
-33 -73 -27 -189 -83 -185 -90 12 -20 129 -33 223 -24 53 4 166 7 250 5 131
-2 165 -6 228 -27 98 -32 157 -31 220 2 l49 26 81 -16 c90 -18 110 -15 177 31
20 14 39 24 42 21 8 -7 -84 -162 -139 -234 -29 -38 -75 -86 -102 -107 -106
-83 -349 -180 -564 -225 -169 -37 -296 -45 -560 -38 -135 4 -253 4 -262 1 -45
-18 -7 -88 87 -164 94 -77 129 -86 421 -115 163 -17 184 -21 184 -41 0 -29
-97 -66 -205 -80 -27 -3 -74 -10 -102 -16 -45 -9 -53 -14 -53 -33 0 -26 60
-73 128 -99 53 -21 141 -22 189 -2 19 8 60 15 89 15 30 0 77 9 106 20 60 23
91 25 136 9 26 -9 38 -6 89 21 69 37 126 37 163 0 21 -21 29 -22 111 -18 49 2
89 1 89 -2 0 -3 -43 -58 -95 -122 -188 -231 -286 -285 -644 -353 -102 -20
-120 -28 -194 -98 -45 -42 -58 -60 -55 -78 5 -41 49 -53 205 -57 221 -6 400
30 550 113 34 19 63 32 63 29 0 -2 -17 -28 -38 -57 -41 -55 -92 -139 -92 -150
0 -11 152 68 249 128 47 30 116 82 153 117 140 132 153 144 166 152 8 5 26 -4
48 -23 34 -31 53 -36 107 -32 15 1 27 -1 27 -5 0 -18 -90 -173 -130 -223 -26
-32 -89 -87 -145 -128 -55 -39 -154 -119 -220 -178 -223 -198 -485 -334 -700
-364 -42 -6 -214 -11 -383 -11 -272 0 -311 -2 -342 -18 -68 -33 -51 -63 93
-166 82 -58 153 -86 221 -86 l41 -1 -25 -21 c-31 -26 -171 -93 -225 -107 -39
-10 -368 -49 -495 -58 -36 -3 -116 2 -179 11 -63 9 -116 14 -119 12 -2 -3 29
-38 69 -78 116 -115 237 -165 449 -183 146 -12 398 23 538 75 28 11 52 15 52
10 0 -14 -210 -149 -374 -241 l-148 -82 35 -17 c143 -70 289 -48 465 68 51 33
56 34 138 33 77 -2 91 1 163 34 43 19 110 41 148 48 53 10 83 23 122 51 28 21
55 45 61 54 9 16 9 16 10 -1 0 -30 -55 -140 -95 -187 -38 -44 -92 -147 -82
-156 2 -3 31 7 63 22 33 15 104 46 159 68 55 23 143 71 195 105 103 69 304
217 359 264 18 15 35 26 38 23 7 -7 -49 -106 -95 -171 -49 -68 -175 -198 -243
-250 -30 -24 -140 -94 -244 -156 -413 -245 -844 -529 -912 -600 -79 -83 -202
-254 -190 -265 3 -3 45 13 93 34 463 206 708 321 842 395 45 25 80 42 77 37
-7 -11 -385 -302 -540 -415 -152 -111 -297 -197 -400 -236 -44 -17 -183 -54
-310 -81 -243 -52 -248 -53 -442 -32 -60 6 -63 5 -74 -19 -22 -49 24 -114 174
-241 l58 -49 107 7 c59 3 125 10 147 15 22 6 41 8 43 6 2 -2 -5 -17 -17 -34
-32 -45 -53 -101 -47 -126 12 -49 161 -77 296 -56 154 24 312 87 500 200 47
28 92 51 101 51 9 0 24 -18 34 -41 30 -65 97 -88 191 -63 61 15 121 46 242
125 64 41 136 68 148 56 6 -5 -356 -438 -548 -657 -212 -241 -336 -369 -488
-499 -74 -64 -240 -220 -370 -348 l-235 -232 10592 -1 10593 0 6 25 c3 14 4
67 2 118 -4 85 -7 98 -48 177 -37 71 -62 102 -149 185 -259 249 -265 256 -285
320 -25 82 -38 105 -120 219 -68 96 -71 102 -74 165 -2 36 8 161 22 277 14
116 26 259 26 319 0 93 -3 112 -22 143 -24 40 -108 97 -203 138 -36 16 -65 33
-65 40 0 6 25 29 56 52 136 101 278 225 325 285 l40 51 -6 95 -7 96 44 23 c48
25 135 98 103 86 -226 -82 -660 -173 -780 -162 l-40 3 67 43 c37 23 70 42 73
42 21 0 172 116 230 176 39 40 117 103 177 143 123 82 170 138 92 111 -47 -17
-174 -38 -174 -30 0 4 26 18 58 31 31 13 75 33 97 46 45 25 131 101 123 108
-3 3 -58 -13 -124 -34 -192 -63 -311 -86 -444 -85 -104 1 -126 4 -229 38 -73
23 -131 36 -157 35 -51 -3 -70 11 -95 68 -10 23 -28 47 -40 53 -18 10 -21 18
-16 57 10 95 96 159 229 173 92 9 244 46 355 84 180 64 362 169 394 228 7 14
-4 11 -53 -12 -82 -39 -329 -93 -328 -72 0 4 23 22 51 41 109 74 212 217 238
331 26 111 8 170 -55 186 -53 13 -168 -4 -268 -40 -54 -20 -106 -36 -116 -36
-10 0 -51 14 -91 31 -110 47 -124 50 -256 58 -109 7 -129 11 -188 40 -65 32
-131 99 -122 125 2 6 21 14 43 18 189 39 383 119 454 190 41 41 42 43 19 46
-13 1 -80 -11 -149 -27 -69 -16 -127 -28 -128 -26 -2 2 18 25 45 52 26 27 64
68 83 92 19 24 40 48 46 55 50 53 170 272 162 296 -5 17 -101 -54 -201 -150
l-95 -90 -12 30 c-15 37 -55 70 -84 70 -12 0 -39 -9 -61 -20 l-39 -20 -42 25
c-23 13 -60 47 -83 74 -23 28 -51 53 -61 56 -28 9 -25 22 16 67 20 22 49 68
65 102 52 111 34 255 -39 298 -16 9 -56 21 -90 27 -68 11 -99 30 -150 94 -129
162 -154 277 -171 786 l-8 240 -29 42 c-27 39 -29 50 -32 150 -3 60 -8 109
-12 109 -29 0 -47 -75 -61 -253 -20 -258 -72 -518 -150 -743 -45 -133 -76
-198 -126 -268 l-35 -49 42 7 42 7 -20 -29 c-29 -40 -104 -107 -141 -126 -17
-9 -31 -19 -31 -23 0 -3 26 -3 58 0 58 5 122 30 177 67 17 11 34 20 39 20 11
0 0 -147 -15 -188 -17 -48 -103 -79 -301 -107 -156 -22 -188 -20 -271 19 -40
18 -87 37 -104 40 -30 7 -33 5 -33 -16 0 -34 61 -116 111 -149 49 -34 180 -86
238 -95 23 -4 41 -8 41 -11 0 -2 -11 -21 -25 -41 -45 -66 -28 -167 37 -224 19
-16 17 -18 -54 -66 -151 -102 -204 -187 -196 -314 5 -82 21 -118 74 -174 25
-27 33 -43 27 -53 -15 -23 -153 -102 -250 -143 -138 -58 -201 -71 -294 -63
-65 6 -84 4 -104 -9 -88 -58 69 -156 248 -156 87 0 131 -54 65 -79 -21 -7 -19
-9 17 -21 49 -16 196 -8 280 16 116 32 112 35 61 -40 -25 -37 -46 -75 -46 -85
0 -17 5 -17 53 -9 73 13 146 49 187 91 19 20 38 37 42 37 9 0 -18 -113 -48
-200 -36 -103 -112 -250 -175 -340 -69 -98 -190 -215 -270 -262 l-64 -38 96 0
96 0 6 -28 c12 -62 94 -111 185 -112 28 0 52 -2 52 -5 0 -2 -11 -20 -24 -40
-14 -20 -30 -62 -36 -93 -26 -132 -49 -165 -141 -207 -84 -37 -121 -40 -213
-16 -44 12 -110 21 -148 21 -37 0 -68 4 -68 9 0 5 29 40 64 76 85 89 94 144
36 225 -31 43 -69 59 -157 66 -75 7 -133 25 -133 43 0 5 33 19 73 31 162 48
285 102 315 139 7 9 37 57 67 106 105 175 135 312 79 369 -36 35 -67 33 -134
-8 -82 -51 -95 -52 -186 -15 -69 29 -89 33 -163 32 l-83 -2 33 29 34 29 -226
110 c-200 98 -321 170 -358 215 -18 22 59 102 125 132 52 23 95 58 113 93 14
25 61 234 61 269 0 50 -30 54 -166 26 -66 -14 -133 -22 -150 -19 -71 13 -302
143 -411 231 -52 43 -94 61 -161 70 -52 7 -52 7 -52 43 -1 20 -7 54 -15 76
-12 34 -12 42 0 60 29 41 51 62 88 85 38 22 40 23 105 7 215 -52 467 -40 561
25 16 11 11 13 -37 15 -31 2 -88 12 -127 22 -85 24 -247 92 -249 106 0 5 35
15 78 21 180 28 321 77 361 125 11 13 41 49 66 79 85 101 101 161 53 199 -34
27 -65 26 -139 -4 -33 -14 -70 -25 -82 -25 -12 0 -70 27 -129 60 -60 33 -130
67 -156 76 -26 8 -48 17 -48 19 0 2 33 13 73 25 147 44 328 160 453 291 78 82
90 107 97 199 3 52 13 92 31 132 18 37 29 82 33 130 l6 72 -109 -110 c-176
-177 -328 -266 -515 -301 -131 -24 -390 -25 -477 -1 -146 41 -252 117 -292
210 -24 57 -37 155 -26 210 l6 34 73 -12 c77 -14 207 -18 207 -7 0 17 -57 77
-102 107 l-50 34 33 18 c46 23 58 42 59 89 l0 40 93 2 c143 2 283 50 376 129
17 14 31 30 31 34 0 5 -23 6 -50 3 -28 -3 -50 -4 -50 -1 0 3 7 19 16 37 9 18
13 42 10 56 -7 26 -70 76 -163 126 -53 29 -63 38 -63 61 0 28 -19 53 -48 62
-11 4 -23 23 -29 49 -15 55 -74 123 -132 150 -44 21 -46 24 -49 67 -3 62 5 73
47 57 29 -11 34 -10 47 7 18 25 18 92 0 177 -17 77 -40 125 -106 224 -66 99
-138 218 -151 252 -6 15 -14 89 -19 164 -8 124 -11 142 -39 195 -25 47 -33 80
-41 159 -20 199 -54 265 -64 128 -4 -43 -13 -104 -21 -135 -10 -39 -15 -110
-15 -215 -1 -263 -2 -268 -141 -561 -67 -142 -124 -264 -127 -271 -8 -21 40
15 106 78 30 28 55 51 57 51 3 0 -28 -143 -39 -177 -6 -20 -4 -23 18 -23 14 0
26 -4 26 -8 0 -5 -65 -73 -145 -152 -81 -79 -150 -151 -155 -161 -6 -10 -10
-86 -10 -169 0 -89 -4 -160 -11 -172 -17 -31 -71 -48 -161 -49 l-83 -1 60 -29
c33 -16 77 -34 98 -41 20 -6 37 -14 37 -18 0 -10 -57 -19 -166 -27 -157 -10
-374 28 -438 78 -52 41 -24 2 52 -72 106 -105 233 -182 331 -204 42 -9 39 -22
-6 -29 -130 -18 -248 -15 -353 10 -22 5 -20 1 15 -31 106 -97 289 -175 433
-183 50 -2 92 -7 92 -10 0 -19 -110 -140 -265 -290 -145 -141 -174 -173 -150
-168 80 18 135 38 169 61 20 14 39 25 41 25 2 0 7 -29 10 -65 4 -36 11 -67 15
-70 4 -2 63 51 132 118 117 114 217 238 338 418 25 37 47 65 49 63 2 -2 -20
-63 -49 -136 -74 -189 -220 -482 -279 -558 -68 -90 -267 -287 -436 -433 -77
-66 -141 -124 -143 -129 -5 -11 86 -10 127 2 29 8 38 6 62 -14 44 -37 120 -58
215 -59 46 -1 84 -4 84 -7 0 -4 -26 -65 -59 -136 -32 -71 -65 -147 -72 -168
-8 -22 -33 -60 -56 -86 -37 -41 -181 -162 -219 -183 -7 -4 7 36 33 88 31 65
47 110 47 138 1 39 -1 42 -27 45 -21 3 -48 -11 -110 -55 -112 -81 -141 -98
-217 -124 -112 -39 -317 -27 -482 27 -27 9 -48 19 -48 24 0 4 17 20 38 36 67
50 142 134 142 159 0 31 -14 44 -113 104 -45 27 -104 72 -130 99 -44 44 -53
64 -106 213 -32 90 -62 175 -65 189 -6 24 -6 24 16 -4 33 -42 195 -228 216
-247 23 -22 250 -155 304 -178 50 -22 308 -42 308 -24 0 6 -52 30 -115 54 -63
24 -115 47 -115 50 0 4 26 11 58 17 162 29 232 67 232 129 0 47 -30 75 -166
152 -152 86 -201 127 -340 282 -65 74 -165 185 -223 247 -57 62 -101 115 -99
118 8 8 93 -33 147 -70 70 -48 131 -59 292 -54 128 3 137 5 184 33 l50 30 -61
5 c-55 4 -66 9 -106 46 -24 22 -83 60 -132 85 -84 42 -92 48 -179 157 -51 63
-109 135 -130 161 -39 47 -161 234 -172 261 -4 12 8 18 52 29 222 50 367 253
292 408 -11 24 -26 43 -32 44 -7 1 -42 0 -79 -1 -94 -3 -165 21 -243 80 -36
27 -74 54 -85 60 -11 6 -20 21 -20 33 0 37 -44 119 -94 174 -49 54 -76 106
-76 147 0 21 7 27 42 36 98 24 125 33 171 58 80 43 98 112 53 207 -38 82 -97
123 -224 155 -54 14 -66 33 -95 151 -24 95 -40 133 -78 180 -31 39 -48 164
-59 452 -11 283 -24 438 -41 468 -11 22 -42 25 -58 5 -6 -7 -18 -47 -26 -87
-20 -103 -29 -130 -69 -212 -49 -100 -58 -156 -50 -327 7 -144 6 -147 -30
-300 -21 -85 -41 -174 -46 -196 -5 -23 -28 -69 -51 -102 -37 -53 -42 -69 -49
-141 -14 -137 -22 -149 -148 -219 -101 -57 -122 -75 -122 -110 0 -60 94 -213
140 -227 29 -9 24 -18 -21 -38 -41 -20 -70 -62 -84 -124 -10 -48 -49 -74 -212
-143 -81 -34 -166 -71 -188 -82 -92 -46 -185 -146 -185 -199 0 -36 56 -83 125
-105 27 -9 52 -18 54 -20 2 -2 -36 -42 -85 -88 l-89 -85 105 28 c58 15 141 43
185 61 66 27 96 34 178 38 115 5 116 3 56 -84 -71 -101 -156 -190 -248 -258
-48 -36 -112 -93 -141 -127 -66 -76 -109 -96 -230 -108 -55 -6 -108 -18 -133
-30 -23 -12 -96 -69 -162 -127 -154 -137 -176 -151 -250 -160 -92 -10 -161
-40 -216 -93 -27 -26 -49 -53 -49 -60 0 -9 4 -10 13 -4 27 22 144 53 199 53
64 0 128 -21 128 -42 0 -8 -23 -36 -51 -63 -69 -68 -119 -131 -93 -118 16 9
47 22 139 64 32 14 253 98 329 125 72 25 196 34 196 14 0 -19 -82 -174 -136
-257 -74 -114 -119 -160 -269 -276 -128 -99 -295 -256 -295 -277 0 -6 26 4 58
22 157 88 283 138 349 138 65 0 291 103 415 189 87 60 473 449 565 570 20 26
16 -1 -16 -129 -62 -242 -106 -334 -243 -504 -56 -68 -104 -139 -124 -184 -23
-50 -52 -90 -92 -130 -96 -95 -234 -216 -287 -252 -63 -43 -129 -109 -150
-150 -9 -17 -15 -33 -13 -35 2 -2 23 2 46 10 63 22 219 43 398 55 212 13 212
13 194 -4 -32 -29 -700 -443 -780 -483 -166 -82 -424 -151 -524 -140 -132 13
-476 -47 -476 -84 0 -5 27 -9 60 -9 97 0 153 -17 203 -61 40 -34 51 -39 94
-39 28 0 76 -9 109 -21 121 -42 253 -36 509 22 72 16 207 45 300 64 94 19 180
37 193 40 12 3 22 1 22 -4 0 -15 -213 -149 -328 -206 -182 -91 -171 -89 -489
-95 -155 -3 -284 -7 -287 -10 -3 -3 4 -20 16 -38 26 -42 120 -86 216 -101 70
-11 232 -80 232 -99 0 -4 -40 -28 -90 -52 -49 -24 -90 -48 -90 -54 0 -15 266
1 370 23 97 20 263 72 312 97 15 8 32 14 37 14 15 0 -22 -94 -54 -136 -47 -61
-68 -69 -181 -69 l-101 0 -72 -49 -72 -50 -127 -8 c-80 -5 -148 -4 -184 2 -86
16 -141 -1 -204 -64 -74 -75 -117 -168 -121 -264 -2 -58 -8 -84 -28 -117 -39
-68 -116 -130 -190 -155 -57 -19 -73 -30 -131 -96 -41 -45 -79 -77 -98 -83
-31 -9 -236 -24 -236 -17 0 2 16 30 35 62 42 70 81 186 91 273 l7 63 -45 -48
c-49 -54 -133 -156 -160 -194 -17 -24 -18 -21 -12 85 8 154 -33 731 -55 773
-4 7 -45 -139 -90 -325 -118 -480 -137 -551 -184 -702 l-41 -134 -66 -54 c-36
-30 -78 -61 -93 -70 -26 -13 -31 -13 -46 1 -32 29 -59 20 -70 -22 -22 -78 -2
-190 46 -263 34 -51 28 -63 -58 -107 -77 -41 -107 -40 -309 9 -116 28 -153 33
-260 33 -107 -1 -143 -5 -250 -32 -147 -37 -182 -39 -235 -12 -30 15 -69 21
-163 27 -142 7 -161 16 -137 62 15 31 97 107 130 123 51 23 93 142 82 235 -8
71 -12 73 -161 73 -102 0 -137 3 -152 15 -19 15 -19 15 4 34 53 45 129 63 312
73 96 5 195 12 220 16 l45 8 -65 31 c-36 17 -85 37 -108 44 -23 6 -42 14 -42
16 0 2 15 19 34 38 44 43 94 146 105 211 7 47 36 107 65 137 33 33 154 190
192 249 52 80 127 228 120 235 -2 3 -42 -26 -88 -64 -251 -209 -436 -320 -605
-364 -85 -21 -113 -24 -113 -9 0 6 6 10 13 10 24 0 158 69 225 117 66 46 272
246 272 264 0 5 -22 -5 -48 -21 -75 -46 -223 -108 -308 -130 -123 -32 -192
-27 -319 20 -59 23 -127 43 -151 47 -24 3 -44 8 -44 10 0 9 23 47 39 64 19 20
90 59 108 59 6 0 25 14 42 31 26 26 31 38 31 78 0 58 -10 68 -103 110 -37 17
-67 34 -67 39 0 12 59 22 128 22 33 0 68 8 92 20 45 23 68 24 171 9 66 -10 83
-10 135 6 89 27 92 33 40 70 -25 18 -73 42 -106 54 -56 20 -91 53 -72 65 5 3
29 8 53 12 64 9 140 34 174 57 39 27 117 111 106 115 -4 1 -34 -5 -67 -13
-169 -45 -450 -20 -543 50 -19 14 -45 25 -57 25 -17 0 -23 8 -28 38 -9 56 -39
97 -103 139 -59 39 -73 67 -43 84 8 5 36 18 61 29 92 41 148 123 135 195 -8
39 -35 69 -154 169 -45 39 -82 73 -82 78 0 5 19 5 43 1 55 -10 237 -10 261 0
17 6 8 14 -49 43 -151 78 -293 194 -317 261 -20 58 -15 453 11 791 23 306 26
386 12 362 -11 -20 -54 -205 -82 -350 -22 -119 -48 -199 -93 -288 -22 -44 -26
-64 -26 -142 0 -170 -19 -202 -185 -317 -50 -34 -96 -71 -103 -83 -7 -12 -34
-31 -60 -43 l-47 -21 45 -7 c71 -12 204 -10 240 2 61 22 63 -28 4 -143 -19
-37 -42 -103 -50 -145 -18 -89 -29 -105 -83 -122 -27 -7 -53 -28 -85 -65 -25
-30 -46 -60 -46 -68 0 -7 26 -26 58 -43 69 -36 74 -55 37 -130 -48 -100 -106
-151 -235 -212 -63 -29 -121 -61 -127 -70 -17 -22 -16 -93 1 -118 7 -11 16
-32 20 -47 3 -15 16 -36 27 -47 25 -23 21 -26 -55 -40 -84 -16 -196 -14 -247
4 -55 20 -69 14 -69 -30 0 -57 22 -94 112 -187 75 -78 87 -87 130 -93 25 -4
68 -2 94 3 27 6 50 9 52 7 2 -1 -7 -39 -18 -82 -25 -89 -69 -185 -87 -191 -22
-6 -98 76 -142 155 -92 165 -108 188 -163 248 -60 65 -131 178 -181 285 -37
83 -77 198 -77 224 0 12 -14 74 -30 140 -17 65 -30 120 -30 123 0 3 37 -30 83
-73 45 -42 107 -93 137 -113 49 -31 64 -35 135 -39 49 -2 97 2 125 10 l44 14
-104 59 -105 59 90 17 c117 22 213 54 360 120 l50 22 -35 8 c-19 5 -90 12
-157 16 -68 3 -123 10 -123 15 0 4 1 8 3 8 15 0 275 125 319 154 89 56 148
121 148 160 0 18 -6 19 -82 13 -46 -4 -123 -18 -173 -31 l-89 -24 -28 23 c-15
13 -54 29 -85 35 -101 21 -207 59 -255 90 -32 21 -63 56 -97 109 -95 149 -181
337 -181 395 0 12 20 52 45 89 24 38 47 81 50 98 7 32 17 36 34 15 47 -56 382
-55 524 2 21 8 35 18 30 22 -9 9 -254 50 -296 50 -52 0 -26 17 43 29 106 17
173 49 239 111 55 53 144 160 138 166 -1 2 -62 -12 -134 -30 l-132 -34 -3 62
-3 61 -73 7 c-90 9 -159 38 -204 86 -52 54 -222 324 -220 348 1 12 6 33 11 47
9 24 10 24 62 11 125 -33 194 -11 294 90 47 48 75 67 131 89 39 15 92 41 117
57 54 34 100 98 95 132 -3 23 -4 23 -143 24 -164 1 -188 9 -270 89 -49 48 -54
56 -60 111 -4 32 -9 66 -11 75 -5 18 -45 29 -103 29 -39 0 -58 15 -115 93 -31
43 -26 45 39 16 36 -16 59 -20 92 -15 53 7 133 40 133 55 0 6 -26 38 -57 71
-40 42 -81 72 -133 98 -82 41 -94 62 -41 73 75 15 113 67 119 165 4 60 4 61
-42 113 -68 77 -78 100 -70 174 8 76 -9 164 -40 209 -36 54 -46 95 -57 233
-11 147 -33 277 -42 255 -14 -34 -59 -322 -67 -426 -9 -123 -23 -162 -85 -248
l-35 -48 2 -112 c2 -128 -8 -159 -86 -261 -51 -67 -73 -135 -57 -177 12 -32
34 -45 90 -54 68 -11 84 -31 84 -100 0 -32 -8 -83 -17 -112 -15 -45 -27 -60
-80 -98 -134 -99 -235 -136 -421 -153 -60 -6 -145 -20 -188 -31 l-79 -21 -31
20 c-58 37 -75 44 -99 37 -42 -12 -208 -233 -208 -278 0 -41 93 -48 163 -13
39 19 44 19 74 -5 16 -12 41 -20 64 -20 22 0 39 -4 39 -8 0 -4 -29 -44 -65
-89 -82 -103 -140 -143 -207 -143 -46 0 -48 -1 -48 -27 1 -69 68 -92 198 -68
230 42 314 79 372 164 22 33 44 62 49 65 4 3 15 -12 24 -34 18 -48 44 -60 130
-60 l62 -1 -27 -22 c-86 -70 -377 -231 -466 -258 -66 -19 -36 -34 69 -34 80 1
89 -1 72 -13 -39 -31 -205 -103 -255 -112 -29 -5 -85 -15 -124 -21 l-71 -12
-161 72 c-168 75 -235 101 -258 101 -43 0 24 -114 98 -167 26 -19 48 -39 48
-43 0 -16 75 -87 110 -105 26 -13 76 -20 190 -26 189 -11 220 -16 220 -34 0
-22 -89 -92 -164 -130 -68 -34 -71 -35 -195 -35 -69 0 -136 -3 -149 -6 -36
-10 -22 -36 33 -62 28 -13 57 -30 65 -37 11 -10 49 -14 130 -14 63 -1 133 -2
156 -2 28 -1 55 7 88 26 33 19 69 30 123 36 66 7 88 15 150 53 40 25 73 41 73
36 0 -21 -148 -163 -221 -211 -45 -29 -77 -55 -71 -57 19 -6 164 39 241 74 40
19 110 59 156 89 45 30 84 55 87 55 10 0 -13 -128 -37 -200 -39 -117 -90 -195
-200 -306 -164 -165 -287 -233 -532 -295 -196 -50 -321 -63 -606 -63 l-258 -1
47 -42 c26 -23 66 -55 88 -70 41 -28 96 -82 96 -95 0 -11 -87 -21 -146 -16
-50 4 -54 3 -33 -8 78 -43 153 -59 279 -59 111 0 134 3 210 29 47 15 102 37
123 48 85 43 46 -10 -83 -115 -115 -92 -158 -109 -293 -111 -62 0 -164 2 -227
7 l-115 7 50 -47 c72 -66 158 -120 223 -137 31 -9 85 -30 120 -48 61 -32 63
-32 123 -19 33 7 121 32 195 55 74 24 134 41 134 37 0 -3 -54 -41 -120 -85
-66 -43 -120 -81 -120 -84 0 -10 150 9 220 29 133 37 246 104 385 229 70 64
122 109 215 190 103 91 104 49 0 -88 -193 -256 -546 -530 -832 -646 -128 -51
-358 -102 -358 -79 0 4 41 35 92 68 102 67 188 140 188 160 0 10 -9 11 -40 3
-22 -6 -67 -7 -102 -3 -74 8 -230 55 -235 72 -2 6 19 19 47 29 27 10 47 21 43
24 -5 4 -57 26 -118 50 -278 109 -505 235 -622 344 -87 81 -102 109 -133 236
-12 52 -35 131 -52 175 -16 44 -33 115 -38 157 -5 42 -16 91 -25 109 l-17 32
49 -28 c198 -114 271 -140 361 -130 63 8 333 63 340 69 5 5 -41 26 -100 45
-67 22 -53 31 48 31 168 0 372 40 436 84 21 15 13 16 -108 16 -72 0 -134 3
-137 7 -14 14 144 72 198 73 83 1 200 140 193 228 -3 34 -6 37 -38 40 -20 2
-97 -15 -175 -38 -224 -65 -312 -64 -525 6 -107 36 -291 122 -297 139 -2 6 36
9 96 7 167 -6 240 22 380 144 20 18 68 47 106 66 122 60 209 113 278 168 37
29 65 55 63 57 -1 2 -29 -8 -61 -22 -149 -66 -314 -95 -431 -76 -38 6 -121 17
-185 25 -64 7 -129 20 -145 28 -109 56 -288 178 -347 236 -109 108 -221 276
-257 385 -16 50 -3 64 38 43 39 -20 79 -20 128 0 58 24 98 20 141 -14 72 -56
99 -65 177 -57 116 11 187 10 266 -4 96 -17 340 -4 340 19 0 8 -36 26 -115 56
-49 18 -56 24 -40 30 136 50 335 155 335 177 0 14 -95 0 -237 -33 -189 -45
-207 -46 -296 -16 -100 33 -300 134 -292 146 3 6 10 10 15 10 21 0 178 82 224
117 40 31 59 57 98 133 50 100 85 223 73 262 -22 69 -73 74 -213 21 -68 -26
-118 -38 -167 -41 -70 -4 -72 -3 -195 60 -161 81 -350 204 -350 227 0 28 44
61 117 88 88 32 144 65 178 105 25 30 27 37 20 88 -4 30 -8 93 -8 140 l-2 85
-91 6 c-77 5 -106 12 -192 48 -56 24 -102 47 -102 53 0 5 7 23 16 40 13 26 15
49 10 120 -6 82 -5 87 11 80 10 -5 49 -23 87 -41 48 -23 77 -31 95 -26 33 8
151 65 151 74 0 3 -41 24 -91 45 -49 21 -86 42 -82 47 4 4 24 15 43 26 105 56
180 125 180 163 0 17 -7 20 -54 20 -70 0 -92 9 -194 77 -98 66 -129 100 -137
151 -4 20 -17 62 -31 93 -19 45 -24 74 -24 142 0 52 -6 98 -15 120 -8 20 -15
55 -15 79 0 23 -9 78 -20 123 -15 58 -22 133 -28 274 l-7 194 -40 -144z m900
-6844 c17 -7 111 -47 210 -89 184 -78 213 -92 205 -99 -16 -12 -353 -98 -360
-91 -13 14 -180 315 -180 324 0 8 23 0 125 -45z"/>
</g>
</svg>
